<svg width="25" height="24" viewBox="0 0 25 24" fill="none" xmlns="http://www.w3.org/2000/svg">
<path opacity="0.5" d="M2.50049 16C2.50049 13.172 2.50049 11.757 3.37949 10.879C4.25749 10 5.67249 10 8.50049 10H16.5005C19.3285 10 20.7435 10 21.6215 10.879C22.5005 11.757 22.5005 13.172 22.5005 16C22.5005 18.828 22.5005 20.243 21.6215 21.121C20.7435 22 19.3285 22 16.5005 22H8.50049C5.67249 22 4.25749 22 3.37949 21.121C2.50049 20.243 2.50049 18.828 2.50049 16Z" fill="#707070"/>
<path d="M7.25049 8C7.25049 6.60761 7.80361 5.27225 8.78818 4.28769C9.77274 3.30312 11.1081 2.75 12.5005 2.75C13.8929 2.75 15.2282 3.30312 16.2128 4.28769C17.1974 5.27225 17.7505 6.60761 17.7505 8V10.004C18.3175 10.009 18.8145 10.022 19.2505 10.054V8C19.2505 6.20979 18.5393 4.4929 17.2735 3.22703C16.0076 1.96116 14.2907 1.25 12.5005 1.25C10.7103 1.25 8.99339 1.96116 7.72752 3.22703C6.46165 4.4929 5.75049 6.20979 5.75049 8V10.055C6.24983 10.0224 6.75008 10.0054 7.25049 10.004V8Z" fill="#707070"/>
</svg>
